# xmcd
#
# Track frame offsets:
#	150
#	14032
#	33907
#	48095
#	63650
#	82400
#	98592
#	115695
#	132390
#	148830
#	163047
#	184352
#
# Disc length: 2700 seconds
#
# Revision: 0
# Processed by: cddbd v1.5.2PL0 Copyright (c) Steve Scherf et al.
# Submitted via: EasyCDDAExtractor 12.0.4.1
#
DISCID=ac0a8a0c
DTITLE=Denis Champoux - Sound of Silence (Coll. Guitare Passion)
DYEAR=2011
DGENRE=Instrumental
TTITLE0=El Condor Pasa
TTITLE1=Sleepwalk
TTITLE2=Love Is Blue
TTITLE3=Yesterday
TTITLE4=And I Love Her
TTITLE5=The End Of The World
TTITLE6=Michelle
TTITLE7=Il faut savoir
TTITLE8=The Sound of Silence
TTITLE9=C'est beau la vie
TTITLE10=Hier encore
TTITLE11=Raindrops Keep Falling On My Head
EXTD=
EXTT0=
EXTT1=
EXTT2=
EXTT3=
EXTT4=
EXTT5=
EXTT6=
EXTT7=
EXTT8=
EXTT9=
EXTT10=
EXTT11=
PLAYORDER=
